<?xml version="1.0" encoding="UTF-8"?>
<svg xmlns="http://www.w3.org/2000/svg" version="1.1" viewBox="0 0 1024 1024">
  <path fill="#0d0d10" d="M326.25,140.76l4.84-.04,263.26-.14,78.68.06c23.26.05,47.5-1.09,70.19,3.96,33.45,7.17,64.12,23.85,88.32,48.02,34.03,33.41,53.16,79.12,53.07,126.81l.24,267.21-.2,77.18c-.01,26.03,1.42,55.23-4.28,80.39-7.65,33.59-24.57,64.37-48.85,88.82-10.41,10.43-23.99,20.35-36.75,27.69-31.98,18.4-60.71,24.07-97.04,24.17l-276.24-.27c-24.34.18-48.69.21-73.03.1-22.25,0-41.79.86-63.7-3.46-68.11-13.42-122.48-65.74-138.94-133.21-5.97-24.48-4.9-46.34-4.91-71.43l-.06-63.28-.12-287.01c-.37-51.53,14.78-95.26,51.4-132.31,28.92-29.26,67.02-47.69,107.91-52.21,9.02-1.03,17.14-1,26.2-1.06Z"/>
  <path fill="#fd1b24" d="M508.86,319.24c14.46-.23,28.17.34,42.54.56,21.1.33,41.52.86,62.6,1.83,26.06,1.2,50.4,1.67,76.44,4.85,24.6,2.32,44.12,12.05,59.44,31.76,14.94,19.2,18.35,38.78,21.59,62.11,5.04,38.33,6.2,77.08,3.46,115.65-1.37,19.18-3.98,37.04-6.36,56.02-9.5-4.6-19.8-8.91-29.48-13.25l-34.77-15.91c-3.84,1.83-11.89,6.99-15.78,9.33l-33.43,20.3c-14.89-9.59-30.35-18.83-44.98-28.72l-46.57,21.59c-14.87-6.01-32.3-11.61-47.67-17.24-6.49-1.07-41.71,13.16-51.47,15.73-13.59-5.5-29.66-13.96-43.58-20.19-7.44,4.57-14.75,9.35-21.92,14.34-6.76,4.67-14.8,10.58-22,14.2-11.35-6.02-24.1-14.98-35.55-21.26-4.84-2.65-9.3-5.88-14.45-8.12-6.38,2.23-19.44,8.9-25.97,12l-43.5,20.53c-8.23-55.43-9.76-113.19-3.46-168.88,3.04-26.93,7.43-53.99,26.99-74.48,9.83-10.27,22.14-17.83,35.75-21.94,19.71-5.83,60.88-6.66,82.05-7.8,36.46-1.96,73.57-2.3,110.09-3.01Z"/>
  <path fill="#ffffff" d="M466.42,419.07c5.45-.25,7.89,1.43,12.47,3.98,5.42,3.02,10.81,6.11,16.22,9.14,16.45,9.13,32.83,18.41,49.12,27.83,11.95,6.82,24.23,13.47,35.93,20.42,7.46,4.35,8.48,15.58.68,20.18-14.02,8.27-28.88,16.32-43.12,24.13-20.67,12.06-42.58,23.4-63.74,34.65-3.9,2.07-6.64,2.72-10.87,1.16-10.69-3.95-8.19-19.39-8.26-28.88l-.16-34.72c-.06-20.81-.23-41.63-.02-62.44.09-9.17,2.96-12.75,11.76-15.45Z"/>
  <path fill="#ffffff" d="M513.49,600.58c10.68,2.54,26.07,7.58,36.99,10.74l-.05,116.2,45.46.56c-26.65,31.71-56.05,63.91-83.45,95.4-9.6-11.67-20.42-22.61-29.88-34.21-17.07-20.93-36-40.65-53.13-61.38l46.27.03c.39-11.31.08-24.04.08-35.49l-.21-79.43c12.76-4.23,25.02-8.56,37.91-12.43Z"/>
  <path fill="#fd1b24" d="M704.47,594.91c4.79.76,50.27,22.92,57.51,26.2-4.37,10.93-9.7,20.6-17.75,29.33-8.7,9.3-19.6,16.25-31.7,20.22-13.37,4.51-32.07,5.69-46.5,6.74-19.8,1.45-39.63,2.45-59.48,3-9.33.24-18.52.65-27.9.83-.71-22.01-.15-46.51-.11-68.68,9.77-5.19,20.93-10.03,30.34-15.61,11.81,8.73,31.94,21.4,44.51,29.27,14.51-7.42,36.07-22.22,51.07-31.29Z"/>
  <path fill="#fd1b24" d="M325.51,595.06c17.25,9.22,33.82,21.23,51.77,31.05,14.05-8.07,30.37-20.07,43.98-29.13,7.73,3.55,20.33,8.96,27.14,13.22l.13,41.49c.02,9.61.26,19.94-.58,29.46-9.45.08-19.76-.53-29.27-.92-27.11-.94-54.1-1.6-81.08-4.63-4.61-.52-9.05-.94-13.62-1.88-6.06-1.21-11.95-3.16-17.54-5.8-18.88-8.69-33.52-24.56-40.66-44.08,19.84-9.72,39.75-19.31,59.72-28.77Z"/>
</svg>
